<svg xmlns="http://www.w3.org/2000/svg" width="135.924" height="163.119" viewBox="0 0 135.924 163.119"><g transform="translate(-0.016 0.002)"><path d="M181.534,289.974,176.1,311.722a2.718,2.718,0,0,0,3.295,3.3l10.874-2.719a2.718,2.718,0,1,0-1.315-5.274l-6.48,1.63,4.349-17.354a2.718,2.718,0,1,0-5.274-1.315Zm0,0" transform="translate(-116.193 -190.046)" fill="#563e5b"/><path d="M113.145,272.09a2.7,2.7,0,0,0-3.3,1.965c-.021.088-2.322,8.822-8.236,8.822s-8.215-8.734-8.238-8.822a2.719,2.719,0,1,0-5.274,1.325c.13.53,3.349,12.934,13.511,12.934s13.38-12.4,13.51-12.934a2.717,2.717,0,0,0-1.971-3.289Zm0,0" transform="translate(-58.094 -179.57)" fill="#563e5b"/><path d="M245.606,288.313c10.161,0,13.38-12.4,13.51-12.934a2.719,2.719,0,1,0-5.274-1.325c-.021.088-2.322,8.822-8.236,8.822s-8.215-8.734-8.238-8.822a2.719,2.719,0,1,0-5.274,1.325c.13.53,3.349,12.934,13.512,12.934Zm0,0" transform="translate(-153.161 -179.57)" fill="#563e5b"/><path d="M125.067,79.168V62.528c0-5.469-8.956-9.414-26.6-11.743a24.475,24.475,0,0,0,1.359-3.891.761.761,0,0,0,0-.174,13.572,13.572,0,0,0,6.207-11.377,2.719,2.719,0,0,0-2.718-2.718,13.521,13.521,0,0,0,2.718-8.155,2.719,2.719,0,0,0-2.718-2.718,13.521,13.521,0,0,0,2.718-8.155,2.719,2.719,0,0,0-2.718-2.718H81.571A29.761,29.761,0,0,0,62.541,17.73V11.338A11.12,11.12,0,0,0,52.246.016,10.763,10.763,0,0,0,41.184,8.171H38.075a2.718,2.718,0,1,0,0,5.437h2.718V40.78a24.314,24.314,0,0,0,1.878,9.39c-15.2,1.56-31.782,4.958-31.782,12.358v16.64C4.694,80.685.016,87.266.016,95.15c0,7.987,4.812,14.637,11.145,16.039a57.058,57.058,0,0,0,113.655,0c6.313-1.4,11.125-8.052,11.125-16.039,0-7.883-4.679-14.465-10.874-15.982ZM10.89,105.355a11.1,11.1,0,0,1-5.437-10.2,11.1,11.1,0,0,1,5.437-10.2ZM81.571,16.313h18.564a8.17,8.17,0,0,1-7.69,5.437,2.718,2.718,0,0,0,0,5.437h7.69a8.17,8.17,0,0,1-7.69,5.437,2.718,2.718,0,0,0,0,5.437h7.69a8.17,8.17,0,0,1-7.69,5.437H59.823A2.718,2.718,0,0,1,57.1,40.78,24.493,24.493,0,0,1,81.571,16.313ZM46.23,10.877a5.392,5.392,0,0,1,1.692-3.941,5.318,5.318,0,0,1,4.038-1.5,5.761,5.761,0,0,1,5.144,5.9V23.654A29.705,29.705,0,0,0,51.667,40.78a8.155,8.155,0,0,0,8.155,8.155H92.445c.312,0,.6-.07.911-.093A19.011,19.011,0,0,1,76.134,59.809H65.26A19.053,19.053,0,0,1,46.23,40.78Zm73.4,95.147a51.651,51.651,0,0,1-103.3,0V68.949c13.888,7.066,49.772,7.172,51.651,7.172s37.762-.106,51.651-7.172ZM67.978,70.683c-32.079,0-50.364-5.282-51.651-8v-.054c.717-1.6,8.775-5.4,29.321-7.283a24.415,24.415,0,0,0,19.612,9.9H76.134A24.468,24.468,0,0,0,95.4,55.879c18.41,2.174,23.819,5.709,24.251,6.524-1.2,2.968-19.491,8.28-51.67,8.28Zm57.088,34.671V84.945a11.108,11.108,0,0,1,5.437,10.2,11.105,11.105,0,0,1-5.437,10.2Zm0,0" transform="translate(0 0)" fill="#563e5b"/></g></svg>