<svg xmlns="http://www.w3.org/2000/svg" width="113.997" height="113.996" viewBox="0 0 113.997 113.996"><path d="M110.657,8.228H96.028q.079-2.43.083-4.888A3.34,3.34,0,0,0,92.771,0H21.226a3.34,3.34,0,0,0-3.34,3.34q0,2.457.083,4.888H3.34A3.34,3.34,0,0,0,0,11.567C0,26.532,3.911,40.65,11.012,51.323c7.02,10.551,16.37,16.6,26.471,17.191a34.293,34.293,0,0,0,7.232,6.073V89.431h-5.6a12.3,12.3,0,0,0-12.283,12.283v5.6h-.237a3.34,3.34,0,0,0,0,6.68H87.4a3.34,3.34,0,0,0,0-6.68h-.237v-5.6A12.3,12.3,0,0,0,74.884,89.431h-5.6V74.587a34.271,34.271,0,0,0,7.233-6.073c10.1-.589,19.451-6.64,26.471-17.191C110.087,40.65,114,26.532,114,11.567A3.34,3.34,0,0,0,110.657,8.228Zm-94.084,39.4c-5.858-8.8-9.3-20.316-9.824-32.716H18.342c1.2,15.243,4.783,29.332,10.375,40.516Q30.053,58.1,31.5,60.472C25.95,58.374,20.809,53.989,16.574,47.623Zm63.915,54.091v5.6H33.509v-5.6a5.61,5.61,0,0,1,5.6-5.6H74.884A5.61,5.61,0,0,1,80.488,101.714ZM62.6,89.431H51.395V77.489a21.73,21.73,0,0,0,11.207,0ZM64.67,69.543a3.25,3.25,0,0,0-.433.219,15.594,15.594,0,0,1-14.475,0,3.324,3.324,0,0,0-.438-.223,26.884,26.884,0,0,1-7.548-6.223,3.379,3.379,0,0,0-.425-.5,52.647,52.647,0,0,1-6.66-10.385C28.553,40.161,25.008,24.022,24.6,6.68H89.392c-.4,17.342-3.949,33.483-10.086,45.756a52.686,52.686,0,0,1-6.659,10.385,3.293,3.293,0,0,0-.427.5A26.892,26.892,0,0,1,64.67,69.543ZM97.423,47.623c-4.236,6.366-9.377,10.752-14.932,12.849q1.449-2.377,2.788-5.049c5.593-11.184,9.17-25.273,10.375-40.516h11.592C106.722,27.307,103.281,38.82,97.423,47.623Zm0,0" fill="#563e5b"/></svg>