<svg xmlns="http://www.w3.org/2000/svg" xmlns:xlink="http://www.w3.org/1999/xlink" width="1920" height="1768" viewBox="0 0 1920 1768">
  <defs>
    <clipPath id="clip-path">
      <rect id="Ret칙ngulo_9" data-name="Ret칙ngulo 9" width="1920" height="1768" transform="translate(0 8114)" fill="#fff"/>
    </clipPath>
  </defs>
  <g id="Grupo_de_m치scara_4" data-name="Grupo de m치scara 4" transform="translate(0 -8114)" clip-path="url(#clip-path)">
    <g id="Caminho_236" data-name="Caminho 236" transform="translate(-20 8117.88)" fill="#563e5b" opacity="0.06">
      <path d="M 1951.820556640625 1937.6201171875 L 0.4327520430088043 1937.6201171875 C -0.7239415645599365 1929.611206054688 -17.62053298950195 1812.317138671875 -40.12833404541016 1639.720703125 C -53.75966644287109 1535.193115234375 -66.75133514404297 1431.136474609375 -78.74199676513672 1330.441040039063 C -93.73066711425781 1204.57275390625 -107.1890029907227 1083.631713867188 -118.7433319091797 970.9780883789063 C -148.1536712646484 684.228759765625 -165.5559997558594 448.7867431640625 -170.4669952392578 271.1920776367188 C -171.8866729736328 219.8597412109375 -172.2656707763672 172.7500762939453 -171.5936737060547 131.1720733642578 C -170.8863372802734 87.41041564941406 -168.9953308105469 48.57308197021484 -165.9726715087891 15.73841381072998 C -164.4066619873047 -1.275919318199158 -162.5039978027344 -17.03291893005371 -160.3173370361328 -31.0955867767334 C -158.0806732177734 -45.47991943359375 -155.4843292236328 -58.49591827392578 -152.6000061035156 -69.78224945068359 C -149.6536712646484 -81.31192016601563 -146.3243408203125 -91.35958862304688 -142.7050018310547 -99.64591979980469 C -139.0163269042969 -108.0912551879883 -134.9243316650391 -114.9402542114258 -130.5429992675781 -120.0022506713867 C -127.2926635742188 -123.7575836181641 -123.8053359985352 -126.6185836791992 -120.178337097168 -128.5055847167969 C -116.5116653442383 -130.4129180908203 -112.5943298339844 -131.3802490234375 -108.53466796875 -131.3802490234375 C -105.3040008544922 -131.3802490234375 -101.8986663818359 -130.7692565917969 -98.41366577148438 -129.5645904541016 C -94.87333679199219 -128.3412475585938 -91.1510009765625 -126.470588684082 -87.34933471679688 -124.0049209594727 C -83.49400329589844 -121.5045852661133 -79.44966888427734 -118.3222503662109 -75.32900238037109 -114.5465850830078 C -71.15599822998047 -110.7235870361328 -66.78766632080078 -106.1849212646484 -62.34500122070313 -101.0562515258789 C -53.30599975585938 -90.62258911132813 -43.57699966430664 -77.30692291259766 -33.42800140380859 -61.47925186157227 C -23.06066703796387 -45.31125259399414 -11.96266651153564 -26.06591987609863 -0.4420000016689301 -4.277585983276367 C 7.878666877746582 11.45908069610596 16.7413330078125 26.76008033752441 25.89999961853027 41.20108032226563 C 34.9183349609375 55.42008209228516 44.48166656494141 69.21274566650391 54.32466506958008 82.19508361816406 C 64.0086669921875 94.96775054931641 74.2413330078125 107.3230819702148 84.73833465576172 118.918083190918 C 95.05633544921875 130.3150787353516 105.9266662597656 141.3050842285156 117.0473327636719 151.5827484130859 C 127.9673309326172 161.6750793457031 139.4436645507813 171.3717498779297 151.1576690673828 180.4027404785156 C 162.6476593017578 189.2614135742188 174.6983337402344 197.736083984375 186.9753265380859 205.5917510986328 C 199.0023345947266 213.2874145507813 211.5956726074219 220.6120758056641 224.406005859375 227.3630828857422 C 236.9369964599609 233.9670867919922 250.0413360595703 240.2140808105469 263.3546752929688 245.9314117431641 C 276.3569946289063 251.5147399902344 289.9403381347656 256.7564086914063 303.7276611328125 261.5107421875 C 317.1676635742188 266.1450805664063 331.1986694335938 270.4537353515625 345.4309997558594 274.3160705566406 C 359.2743225097656 278.0730895996094 373.7213439941406 281.5204162597656 388.3710021972656 284.5624084472656 C 402.5826721191406 287.513427734375 417.4143371582031 290.1720886230469 432.4536743164063 292.4644165039063 C 487.454345703125 300.8470764160156 548.2616577148438 304.9220886230469 618.3506469726563 304.9220886230469 C 640.986328125 304.9220886230469 664.3109741210938 304.5110778808594 689.6580200195313 303.6657409667969 C 712.2533569335938 302.9120788574219 735.9603271484375 301.8270874023438 762.1339721679688 300.3494262695313 C 810.7739868164063 297.6030883789063 860.9236450195313 293.8677368164063 909.4219970703125 290.2554016113281 C 958.9010009765625 286.5697326660156 1010.064331054688 282.7590942382813 1060.279052734375 279.9384155273438 C 1087.321044921875 278.4197387695313 1111.890380859375 277.3040771484375 1135.390380859375 276.528076171875 C 1161.784057617188 275.65673828125 1186.150024414063 275.2330932617188 1209.880981445313 275.2330932617188 C 1229.208618164063 275.2330932617188 1248.149658203125 275.5284118652344 1266.177978515625 276.111083984375 C 1285.214965820313 276.7264099121094 1303.925659179688 277.6837463378906 1321.790283203125 278.9570922851563 C 1340.51171875 280.2910766601563 1358.945678710938 282.0177612304688 1376.579345703125 284.0884094238281 C 1394.953979492188 286.24609375 1413.064697265625 288.8480834960938 1430.407958984375 291.8224182128906 C 1448.400024414063 294.9080810546875 1466.140991210938 298.4927368164063 1483.138671875 302.4770812988281 C 1500.708984375 306.5957336425781 1518.034301757813 311.2697448730469 1534.633666992188 316.3694152832031 C 1551.742309570313 321.625732421875 1568.60595703125 327.4957580566406 1584.75634765625 333.8167419433594 C 1601.361328125 340.3157348632813 1617.717041015625 347.4887390136719 1633.369018554688 355.1367492675781 C 1649.4287109375 362.9837341308594 1665.230712890625 371.56640625 1680.336059570313 380.6467590332031 C 1695.807373046875 389.9470825195313 1711.00927734375 400.0464172363281 1725.520385742188 410.6650695800781 C 1740.359985351563 421.5240783691406 1754.916625976563 433.2474060058594 1768.78564453125 445.5097351074219 C 1782.950317382813 458.0334167480469 1796.815673828125 471.4880676269531 1809.996337890625 485.5000915527344 C 1823.441650390625 499.7937622070313 1836.5693359375 515.0870971679688 1849.0146484375 530.9547729492188 C 1861.696655273438 547.1243896484375 1874.040649414063 564.36376953125 1885.70361328125 582.1930541992188 C 1897.57763671875 600.3447265625 1909.091674804688 619.6370849609375 1919.926391601563 639.534423828125 C 1930.947021484375 659.7734375 1941.5849609375 681.2264404296875 1951.544311523438 703.2970581054688 C 1964.100341796875 731.1220703125 1976.17529296875 759.0734252929688 1987.434326171875 786.374755859375 C 1998.45361328125 813.0947265625 2008.995971679688 839.9307250976563 2018.767944335938 866.13671875 C 2028.324951171875 891.7667236328125 2037.409301757813 917.5020751953125 2045.768310546875 942.6277465820313 C 2053.937744140625 967.1820678710938 2061.6396484375 991.8317260742188 2068.66064453125 1015.891723632813 C 2075.516357421875 1039.385131835938 2081.911376953125 1062.964111328125 2087.668701171875 1085.973022460938 C 2093.284912109375 1108.420776367188 2098.44873046875 1130.943725585938 2103.016357421875 1152.916381835938 C 2107.468017578125 1174.332763671875 2111.47607421875 1195.814697265625 2114.92822265625 1216.76611328125 C 2118.28955078125 1237.165771484375 2121.217041015625 1257.6220703125 2123.628662109375 1277.566772460938 C 2125.97412109375 1296.96435546875 2127.896240234375 1316.409790039063 2129.341552734375 1335.362426757813 C 2130.74560546875 1353.7734375 2131.738037109375 1372.222778320313 2132.291259765625 1390.198120117188 C 2132.827880859375 1407.636474609375 2132.96630859375 1425.104736328125 2132.701904296875 1442.117797851563 C 2132.446044921875 1458.598754882813 2131.805419921875 1475.10107421875 2130.798095703125 1491.166381835938 C 2128.882080078125 1521.715698242188 2125.56591796875 1551.882446289063 2120.941650390625 1580.828125 C 2116.64794921875 1607.705078125 2111.12158203125 1634.187377929688 2104.51611328125 1659.539428710938 C 2098.439453125 1682.862060546875 2091.3056640625 1705.780029296875 2083.313720703125 1727.65673828125 C 2076.04833984375 1747.54345703125 2067.91064453125 1767.01708984375 2059.126220703125 1785.536376953125 C 2044.3330078125 1816.72412109375 2027.45703125 1845.816772460938 2008.966674804688 1872.005737304688 C 2001.703369140625 1882.293090820313 1994.171020507813 1892.151123046875 1986.578002929688 1901.306396484375 C 1980.504638671875 1908.62939453125 1974.380004882813 1915.521362304688 1968.373291015625 1921.791137695313 C 1958.971069335938 1931.60546875 1952.79736328125 1936.810302734375 1951.820556640625 1937.6201171875 Z" stroke="none"/>
      <path d="M -108.53466796875 -130.8802490234375 C -112.513427734375 -130.8802490234375 -116.353271484375 -129.931884765625 -119.94775390625 -128.0618896484375 C -123.5185546875 -126.2042236328125 -126.9560546875 -123.382568359375 -130.1650390625 -119.6749267578125 C -134.513427734375 -114.6512451171875 -138.578369140625 -107.844970703125 -142.2470703125 -99.4459228515625 C -145.855712890625 -91.1842041015625 -149.176025390625 -81.1622314453125 -152.11572265625 -69.6585693359375 C -154.99609375 -58.387939453125 -157.589111328125 -45.3875732421875 -159.8232421875 -31.0189208984375 C -162.00830078125 -16.966552734375 -163.90966796875 -1.219970703125 -165.47509765625 15.78369140625 C -168.496337890625 48.605712890625 -170.38671875 87.430419921875 -171.09375 131.1790771484375 C -171.765625 172.7501220703125 -171.38671875 219.85205078125 -169.96728515625 271.1767578125 C -165.056640625 448.7587280273438 -147.655029296875 684.187744140625 -118.24609375 970.924072265625 C -106.69189453125 1083.57470703125 -93.23388671875 1204.5126953125 -78.24609375 1330.37841796875 C -66.25537109375 1431.072021484375 -53.2640380859375 1535.126708984375 -39.633056640625 1639.652709960938 C -17.4598388671875 1809.683349609375 -0.7320556640625 1926.04345703125 0.865966796875 1937.119750976563 L 1951.639526367188 1937.119750976563 C 1952.958374023438 1936.016845703125 1959.026611328125 1930.829345703125 1968.075317382813 1921.37939453125 C 1974.078979492188 1915.108764648438 1980.201049804688 1908.216430664063 1986.270629882813 1900.893432617188 C 1993.857666015625 1891.73974609375 2001.38427734375 1881.884033203125 2008.640991210938 1871.599365234375 C 2027.113037109375 1845.421142578125 2043.970947265625 1816.341430664063 2058.747314453125 1785.16845703125 C 2067.520751953125 1766.659057617188 2075.6484375 1747.196411132813 2082.904052734375 1727.32080078125 C 2090.88525390625 1705.456787109375 2098.009033203125 1682.552124023438 2104.07666015625 1659.24267578125 C 2110.67236328125 1633.90576171875 2116.189697265625 1607.439086914063 2120.475341796875 1580.578125 C 2125.091064453125 1551.6494140625 2128.399658203125 1521.500732421875 2130.309326171875 1490.969482421875 C 2131.313232421875 1474.9130859375 2131.950927734375 1458.42041015625 2132.20458984375 1441.949096679688 C 2132.466064453125 1424.94580078125 2132.32568359375 1407.487060546875 2131.78662109375 1390.058349609375 C 2131.2314453125 1372.093017578125 2130.237060546875 1353.654052734375 2128.83154296875 1335.25341796875 C 2127.385009765625 1316.31103515625 2125.4619140625 1296.87646484375 2123.11572265625 1277.489135742188 C 2120.703369140625 1257.555053710938 2117.775634765625 1237.109741210938 2114.4140625 1216.721069335938 C 2110.961669921875 1195.780395507813 2106.954345703125 1174.309448242188 2102.5029296875 1152.904418945313 C 2097.936279296875 1130.942749023438 2092.773681640625 1108.431030273438 2087.15869140625 1085.9951171875 C 2081.403076171875 1062.997436523438 2075.009765625 1039.430419921875 2068.15625 1015.948425292969 C 2061.1376953125 991.9000854492188 2053.438232421875 967.2627563476563 2045.272338867188 942.720458984375 C 2036.916381835938 917.6067504882813 2027.835693359375 891.8837890625 2018.282348632813 866.26611328125 C 2008.5146484375 840.0723876953125 1997.97705078125 813.2493896484375 1986.962646484375 786.541748046875 C 1975.708374023438 759.2530517578125 1963.638671875 731.3147583007813 1951.088623046875 703.5027465820313 C 1941.13427734375 681.4434204101563 1930.501953125 660.0017700195313 1919.4873046875 639.7734375 C 1908.659057617188 619.8877563476563 1897.151977539063 600.6070556640625 1885.285278320313 582.4664306640625 C 1873.630004882813 564.6487426757813 1861.294311523438 547.42138671875 1848.620971679688 531.2627563476563 C 1836.18505859375 515.4064331054688 1823.0673828125 500.1243896484375 1809.631958007813 485.8414306640625 C 1796.462036132813 471.8403930664063 1782.607666015625 458.3964233398438 1768.454711914063 445.8827514648438 C 1754.597045898438 433.6304321289063 1740.052368164063 421.9164428710938 1725.224975585938 411.06640625 C 1710.726318359375 400.4567260742188 1695.53662109375 390.3654174804688 1680.078369140625 381.07275390625 C 1664.9853515625 371.999755859375 1649.1962890625 363.4237670898438 1633.149658203125 355.582763671875 C 1617.509643554688 347.9407348632813 1601.166625976563 340.7730712890625 1584.573974609375 334.279052734375 C 1568.435302734375 327.96240234375 1551.583740234375 322.096435546875 1534.487060546875 316.84375 C 1517.898315429688 311.7474365234375 1500.583984375 307.076416015625 1483.024658203125 302.9603881835938 C 1466.03662109375 298.9783935546875 1448.3056640625 295.395751953125 1430.32373046875 292.3120727539063 C 1412.989013671875 289.3390502929688 1394.887329101563 286.7384033203125 1376.521362304688 284.5820922851563 C 1358.89501953125 282.5123901367188 1340.46875 280.7867431640625 1321.754638671875 279.4534301757813 C 1303.896362304688 278.1810913085938 1285.1923828125 277.2240600585938 1266.161987304688 276.6094360351563 C 1248.138916015625 276.0274047851563 1229.203002929688 275.732421875 1209.880981445313 275.7330932617188 C 1186.15771484375 275.7337646484375 1161.799072265625 276.1577758789063 1135.413330078125 277.029052734375 C 1111.9189453125 277.8050537109375 1087.355712890625 278.92041015625 1060.319580078125 280.4390869140625 C 1010.114013671875 283.2590942382813 958.9569702148438 287.069091796875 909.484619140625 290.7537231445313 C 860.9796142578125 294.3663940429688 810.8233642578125 298.10205078125 762.17431640625 300.848388671875 C 735.99462890625 302.3267211914063 712.2816162109375 303.4114379882813 689.6806640625 304.1654052734375 C 664.32568359375 305.0111083984375 640.99365234375 305.4220581054688 618.350341796875 305.4220581054688 C 548.2359619140625 305.4220581054688 487.404052734375 301.3450927734375 432.3780517578125 292.9584350585938 C 417.3299560546875 290.6651000976563 402.4896240234375 288.0047607421875 388.26904296875 285.0520629882813 C 373.609619140625 282.008056640625 359.1527099609375 278.5584106445313 345.300048828125 274.7987670898438 C 331.056640625 270.9334106445313 317.0146484375 266.6213989257813 303.564697265625 261.9833984375 C 289.765625 257.22509765625 276.170654296875 251.9790649414063 263.1573486328125 246.3907470703125 C 249.8316650390625 240.6683959960938 236.71533203125 234.4154052734375 224.172607421875 227.805419921875 C 211.3499755859375 221.048095703125 198.744384765625 213.716064453125 186.7056884765625 206.0127563476563 C 174.4163818359375 198.1494140625 162.3536376953125 189.6660766601563 150.852294921875 180.7987670898438 C 139.126708984375 171.7587890625 127.638671875 162.0523681640625 116.7076416015625 151.9500732421875 C 105.5762939453125 141.662353515625 94.6953125 130.6617431640625 84.3673095703125 119.25341796875 C 73.8607177734375 107.6480712890625 63.61865234375 95.2813720703125 53.926025390625 82.4970703125 C 44.07470703125 69.5037841796875 34.5032958984375 55.69970703125 25.4776611328125 41.46875 C 16.31201171875 27.0167236328125 7.442626953125 11.7041015625 -0.884033203125 -4.0439453125 C -12.39794921875 -25.8199462890625 -23.489013671875 -45.05322265625 -33.8489990234375 -61.209228515625 C -43.9849853515625 -77.0169677734375 -53.69970703125 -90.313232421875 -62.7230224609375 -100.7288818359375 C -67.1533203125 -105.8428955078125 -71.50830078125 -110.367919921875 -75.6666259765625 -114.177978515625 C -79.767333984375 -117.9349365234375 -83.789306640625 -121.0999755859375 -87.62158203125 -123.585205078125 C -91.389404296875 -126.0289306640625 -95.075439453125 -127.8819580078125 -98.576904296875 -129.09228515625 C -102.009765625 -130.278564453125 -105.360107421875 -130.8802490234375 -108.53466796875 -130.8802490234375 M -108.534423828125 -131.88037109375 C -82.2724609375 -131.88037109375 -46.794921875 -93.0126953125 0 -4.51123046875 C 134.677490234375 250.1992797851563 362.0106201171875 304.4220581054688 618.3504638671875 304.4220581054688 C 808.159912109375 304.4220581054688 1013.866516113281 274.7379150390625 1209.880981445313 274.73291015625 C 1511.792602539063 274.7252197265625 1790.4833984375 345.1583251953125 1952 703.0914306640625 C 2360 1607.250122070313 1952 1938.119750976563 1952 1938.119750976563 L 0 1938.119750976563 C 0 1938.119750976563 -300.02392578125 -131.88037109375 -108.534423828125 -131.88037109375 Z" stroke="none" fill="#707070"/>
    </g>
  </g>
</svg>
