<svg xmlns="http://www.w3.org/2000/svg" xmlns:xlink="http://www.w3.org/1999/xlink" width="1920" height="540" viewBox="0 0 1920 540">
  <defs>
    <clipPath id="clip-path">
      <rect id="Rectangle_7" data-name="Rectangle 7" width="1920" height="540" transform="translate(0 9550)" fill="#fff" stroke="#707070" stroke-width="1"/>
    </clipPath>
  </defs>
  <g id="Mask_Group_2" data-name="Mask Group 2" transform="translate(0 -9550)" clip-path="url(#clip-path)">
    <g id="Group_47" data-name="Group 47">
      <g id="Path_234" data-name="Path 234" transform="translate(-16 9795)" fill="#563e5b">
        <path d="M 1951.938598632813 499.5 L 0.3165010511875153 499.5 C -1.205317258834839 496.2795715332031 -15.33423233032227 466.2724304199219 -34.65133285522461 421.5666809082031 C -46.60966491699219 393.8916625976563 -58.18666839599609 366.0826721191406 -69.06133270263672 338.9119873046875 C -82.65366363525391 304.9500122070313 -95.18033599853516 271.8956604003906 -106.2929992675781 240.6673278808594 C -134.5756683349609 161.1880035400391 -153.9810028076172 92.91566467285156 -163.9700012207031 37.74666595458984 C -166.8566741943359 21.80566596984863 -168.9830017089844 6.76366662979126 -170.2906646728516 -6.961333274841309 C -171.6663360595703 -21.40266609191895 -172.17333984375 -34.78233337402344 -171.7973327636719 -46.72866821289063 C -171.4033355712891 -59.24633407592773 -170.0293273925781 -70.53433227539063 -167.7129974365234 -80.2796630859375 C -166.5169982910156 -85.31166839599609 -165.0446624755859 -90.03733062744141 -163.3370056152344 -94.32499694824219 C -161.5946655273438 -98.69999694824219 -159.5579986572266 -102.7426681518555 -157.2836608886719 -106.3399963378906 C -154.7420043945313 -110.3606643676758 -151.8283386230469 -113.9443359375 -148.6233367919922 -116.9916687011719 C -145.3493347167969 -120.1046676635742 -141.6783294677734 -122.7466659545898 -137.7123260498047 -124.8443298339844 C -133.6580047607422 -126.9886703491211 -129.1793365478516 -128.6256713867188 -124.4006652832031 -129.7096710205078 C -119.5146636962891 -130.8179931640625 -114.1766662597656 -131.3803405761719 -108.53466796875 -131.3803405761719 C -101.9570007324219 -131.3803405761719 -94.77033233642578 -130.6176605224609 -87.17433166503906 -129.1136627197266 C -79.39833068847656 -127.574333190918 -70.97299957275391 -125.2143325805664 -62.13333511352539 -122.0993347167969 C -53.09533309936523 -118.914665222168 -43.36800003051758 -114.8509979248047 -33.22200012207031 -110.0206680297852 C -22.85899925231934 -105.0876693725586 -11.76566696166992 -99.21533203125 -0.25 -92.56700134277344 C 8.075333595275879 -87.76066589355469 16.94266700744629 -83.08733367919922 26.10533332824707 -78.67733001708984 C 35.12599945068359 -74.33567047119141 44.69133377075195 -70.12433624267578 54.53633499145508 -66.16066741943359 C 73.73033142089844 -58.43266677856445 94.83066558837891 -51.30733489990234 117.2506637573242 -44.98233413696289 C 138.8626708984375 -38.8849983215332 162.3800048828125 -33.34066772460938 187.1490020751953 -28.50266647338867 C 210.9129943847656 -23.86100006103516 236.5966644287109 -19.72033309936523 263.4869995117188 -16.19533348083496 C 289.1283264160156 -12.8343334197998 316.7283325195313 -9.920332908630371 345.5206604003906 -7.535333156585693 C 372.7496643066406 -5.279333114624023 402.0156555175781 -3.416333436965942 432.5056762695313 -1.998000025749207 C 487.489013671875 0.5603333115577698 548.2793579101563 1.803666710853577 618.350341796875 1.803666710853577 C 712.4976806640625 1.803666710853577 812.5946655273438 -0.4720000028610229 909.3963623046875 -2.67300009727478 C 1008.556030273438 -4.927666664123535 1111.09130859375 -7.258999824523926 1209.880981445313 -7.258999824523926 C 1293.20361328125 -7.258999824523926 1365.358032226563 -5.60200023651123 1430.466674804688 -2.193333387374878 C 1467.021606445313 -0.2796666622161865 1502.102294921875 2.24233341217041 1534.734008789063 5.302666664123535 C 1569.416625976563 8.555333137512207 1602.6513671875 12.53866672515869 1633.515014648438 17.14200019836426 C 1666.016357421875 21.98966598510742 1697.034057617188 27.69499969482422 1725.706665039063 34.09966659545898 C 1740.551635742188 37.41566848754883 1755.113037109375 40.99566650390625 1768.986694335938 44.7400016784668 C 1783.154663085938 48.56366729736328 1797.02294921875 52.67166519165039 1810.2060546875 56.95000076293945 C 1823.652709960938 61.31366729736328 1836.781005859375 65.98200225830078 1849.226684570313 70.82599639892578 C 1861.907348632813 75.76132965087891 1874.249633789063 81.02300262451172 1885.91064453125 86.46466827392578 C 1897.780639648438 92.00366973876953 1909.290649414063 97.89066314697266 1920.120971679688 103.9619979858398 C 1931.135375976563 110.1366653442383 1941.766967773438 116.6813354492188 1951.719970703125 123.4140014648438 C 1970.177001953125 135.8999938964844 1987.470947265625 148.3849945068359 2003.121337890625 160.5223388671875 C 2018.272338867188 172.2726593017578 2032.294677734375 184.0166625976563 2044.798950195313 195.4283294677734 C 2056.883544921875 206.4566650390625 2067.8779296875 217.4733276367188 2077.4765625 228.1723327636719 C 2086.735107421875 238.4920043945313 2094.944580078125 248.7949981689453 2101.8779296875 258.794677734375 C 2108.55078125 268.4186706542969 2114.220703125 278.0206604003906 2118.729736328125 287.3340148925781 C 2123.059326171875 296.2760009765625 2126.4345703125 305.1910095214844 2128.762451171875 313.8320007324219 C 2130.99169921875 322.1066589355469 2132.3193359375 330.3506774902344 2132.708984375 338.3346557617188 C 2133.081298828125 345.9603271484375 2132.607421875 353.5516662597656 2131.30078125 360.8980102539063 C 2130.235107421875 366.888671875 2128.58935546875 372.8646545410156 2126.408935546875 378.6600036621094 C 2124.32275390625 384.2046813964844 2121.691650390625 389.7316589355469 2118.589111328125 395.0873413085938 C 2112.81201171875 405.0580139160156 2105.190673828125 414.8030090332031 2095.93603515625 424.052001953125 C 2080.332763671875 439.6456604003906 2059.8603515625 454.1333312988281 2035.088012695313 467.1130065917969 C 2025.350708007813 472.2149963378906 2014.917724609375 477.0929870605469 2004.078979492188 481.6116638183594 C 1995.406372070313 485.2269897460938 1986.4560546875 488.6220092773438 1977.476684570313 491.70166015625 C 1962.787963867188 496.7395324707031 1952.792358398438 499.2852172851563 1951.938598632813 499.5 Z" stroke="none"/>
        <path d="M -108.53466796875 -130.8803405761719 C -114.1396484375 -130.8803405761719 -119.440673828125 -130.3223266601563 -124.290283203125 -129.2223205566406 C -129.02587890625 -128.1476745605469 -133.462890625 -126.5263366699219 -137.478759765625 -124.40234375 C -141.404296875 -122.3259887695313 -145.0380859375 -119.7109985351563 -148.278564453125 -116.6293334960938 C -151.4541015625 -113.6103210449219 -154.34130859375 -110.0586547851563 -156.861083984375 -106.072998046875 C -159.118896484375 -102.5016784667969 -161.141357421875 -98.48699951171875 -162.87255859375 -94.14031982421875 C -164.5712890625 -89.87533569335938 -166.035888671875 -85.17333984375 -167.2265625 -80.1646728515625 C -169.534912109375 -70.45233154296875 -170.90478515625 -59.197998046875 -171.297607421875 -46.71434020996094 C -171.673095703125 -34.78933715820313 -171.1669921875 -21.43099975585938 -169.79296875 -7.011337280273438 C -168.487060546875 6.699661254882813 -166.362548828125 21.72734069824219 -163.478759765625 37.65432739257813 C -153.4951171875 92.79533386230469 -134.097412109375 161.0403289794922 -105.82421875 240.49267578125 C -94.714111328125 271.7146606445313 -82.18994140625 304.7626647949219 -68.5999755859375 338.7183227539063 C -57.727294921875 365.885009765625 -46.1519775390625 393.6900024414063 -34.1953125 421.3609924316406 C -15.35546875 464.9631652832031 -1.4508056640625 494.5823059082031 0.6334228515625 499 L 1951.876342773438 499 C 1953.05029296875 498.703125 1962.935302734375 496.1613464355469 1977.333984375 491.2219848632813 C 1986.303955078125 488.1449890136719 1995.244384765625 484.7533264160156 2003.907348632813 481.1413269042969 C 2014.732055664063 476.6279907226563 2025.150634765625 471.7560119628906 2034.874389648438 466.6606750488281 C 2059.597900390625 453.7046813964844 2080.02587890625 439.2473449707031 2095.590576171875 423.6903381347656 C 2104.812744140625 414.47265625 2112.406005859375 404.7630004882813 2118.159423828125 394.8309936523438 C 2121.248046875 389.4996643066406 2123.8662109375 383.9983520507813 2125.9423828125 378.47998046875 C 2128.111328125 372.7139892578125 2129.748779296875 366.7686767578125 2130.80859375 360.8086547851563 C 2132.108642578125 353.4989929199219 2132.580078125 345.9453125 2132.209716796875 338.3573303222656 C 2131.82177734375 330.4089965820313 2130.499267578125 322.20068359375 2128.279296875 313.9603271484375 C 2125.959716796875 305.3496704101563 2122.594970703125 296.4643249511719 2118.279052734375 287.5503234863281 C 2113.781005859375 278.2606811523438 2108.124267578125 268.6809997558594 2101.466064453125 259.0780029296875 C 2094.544677734375 249.0956726074219 2086.347900390625 238.809326171875 2077.103271484375 228.5053405761719 C 2067.51611328125 217.8186645507813 2056.53369140625 206.8139953613281 2044.461303710938 195.7969970703125 C 2031.966674804688 184.3943328857422 2017.954711914063 172.6593322753906 2002.814331054688 160.9173278808594 C 1987.172607421875 148.7863311767578 1969.8876953125 136.3079986572266 1951.439697265625 123.8283386230469 C 1941.498291015625 117.1033325195313 1930.879028320313 110.5660018920898 1919.876342773438 104.3980026245117 C 1909.057006835938 98.33266448974609 1897.557983398438 92.45133209228516 1885.699340820313 86.91766357421875 C 1874.047973632813 81.48066711425781 1861.715698242188 76.22333526611328 1849.045288085938 71.29166412353516 C 1836.608642578125 66.45133209228516 1823.489379882813 61.78600311279297 1810.051635742188 57.42500305175781 C 1796.876708984375 53.14967346191406 1783.016357421875 49.04400634765625 1768.856323242188 45.22233581542969 C 1754.989990234375 41.47966003417969 1740.435302734375 37.90167236328125 1725.59765625 34.58700561523438 C 1696.936279296875 28.18499755859375 1665.9306640625 22.48167419433594 1633.441040039063 17.63566589355469 C 1602.586303710938 13.03366088867188 1569.360595703125 9.05133056640625 1534.687377929688 5.799331665039063 C 1502.06201171875 2.739669799804688 1466.98828125 0.2183380126953125 1430.440673828125 -1.69500732421875 C 1365.338989257813 -5.10333251953125 1293.193359375 -6.759674072265625 1209.880981445313 -6.759002685546875 C 1111.106323242188 -6.75799560546875 1008.583312988281 -4.427337646484375 909.4356689453125 -2.17333984375 C 812.6219482421875 0.0276641845703125 712.5123291015625 2.303665161132813 618.350341796875 2.303665161132813 C 548.2713623046875 2.303665161132813 487.473388671875 1.05999755859375 432.4822998046875 -1.498336791992188 C 401.986328125 -2.917327880859375 372.71435546875 -4.780670166015625 345.4793701171875 -7.037002563476563 C 316.678955078125 -9.423004150390625 289.071044921875 -12.33732604980469 263.421630859375 -15.69966125488281 C 236.5213623046875 -19.22599792480469 210.8270263671875 -23.36833190917969 187.052978515625 -28.01199340820313 C 162.2706298828125 -32.85234069824219 138.739990234375 -38.40032958984375 117.114990234375 -44.50100708007813 C 94.6776123046875 -50.83099365234375 73.560302734375 -57.96232604980469 54.349365234375 -65.69700622558594 C 44.49462890625 -69.6646728515625 34.9189453125 -73.88034057617188 25.888671875 -78.22665405273438 C 16.71435546875 -82.642333984375 7.8360595703125 -87.32131958007813 -0.5 -92.13400268554688 C -12.0042724609375 -98.77566528320313 -23.0860595703125 -104.6416625976563 -33.43701171875 -109.5693359375 C -43.5673828125 -114.3919982910156 -53.2779541015625 -118.4490051269531 -62.2996826171875 -121.6279907226563 C -71.116943359375 -124.7346801757813 -79.5185546875 -127.0883483886719 -87.271728515625 -128.6233215332031 C -94.835693359375 -130.1210021972656 -101.98974609375 -130.8803405761719 -108.53466796875 -130.8803405761719 M -108.534423828125 -131.8801879882813 C -82.2724609375 -131.8801879882813 -46.794921875 -120.015625 0 -93 C 134.677490234375 -15.248046875 362.0107421875 1.303787231445313 618.3504638671875 1.303787231445313 C 808.159912109375 1.303787231445313 1013.866638183594 -7.757476806640625 1209.881103515625 -7.759002685546875 C 1511.792724609375 -7.761367797851563 1790.4833984375 13.73876953125 1952 123 C 2360 399 1952 500 1952 500 L 0 500 C 0 500 -300.02392578125 -131.8801879882813 -108.534423828125 -131.8801879882813 Z" stroke="none" fill="#707070"/>
      </g>
      <g id="Path_235" data-name="Path 235" transform="translate(-20 9749)" fill="#563e5b" opacity="0.28">
        <path d="M 1951.938598632813 499.5 L 0.3165010511875153 499.5 C -1.205317258834839 496.2795715332031 -15.33423233032227 466.2724304199219 -34.65133285522461 421.5666809082031 C -46.60966491699219 393.8916625976563 -58.18666839599609 366.0826721191406 -69.06133270263672 338.9119873046875 C -82.65366363525391 304.9500122070313 -95.18033599853516 271.8956604003906 -106.2929992675781 240.6673278808594 C -134.5756683349609 161.1880035400391 -153.9810028076172 92.91566467285156 -163.9700012207031 37.74666595458984 C -166.8566741943359 21.80566596984863 -168.9830017089844 6.76366662979126 -170.2906646728516 -6.961333274841309 C -171.6663360595703 -21.40266609191895 -172.17333984375 -34.78233337402344 -171.7973327636719 -46.72866821289063 C -171.4033355712891 -59.24633407592773 -170.0293273925781 -70.53433227539063 -167.7129974365234 -80.2796630859375 C -166.5169982910156 -85.31166839599609 -165.0446624755859 -90.03733062744141 -163.3370056152344 -94.32499694824219 C -161.5946655273438 -98.69999694824219 -159.5579986572266 -102.7426681518555 -157.2836608886719 -106.3399963378906 C -154.7420043945313 -110.3606643676758 -151.8283386230469 -113.9443359375 -148.6233367919922 -116.9916687011719 C -145.3493347167969 -120.1046676635742 -141.6783294677734 -122.7466659545898 -137.7123260498047 -124.8443298339844 C -133.6580047607422 -126.9886703491211 -129.1793365478516 -128.6256713867188 -124.4006652832031 -129.7096710205078 C -119.5146636962891 -130.8179931640625 -114.1766662597656 -131.3803405761719 -108.53466796875 -131.3803405761719 C -101.9570007324219 -131.3803405761719 -94.77033233642578 -130.6176605224609 -87.17433166503906 -129.1136627197266 C -79.39833068847656 -127.574333190918 -70.97299957275391 -125.2143325805664 -62.13333511352539 -122.0993347167969 C -53.09533309936523 -118.914665222168 -43.36800003051758 -114.8509979248047 -33.22200012207031 -110.0206680297852 C -22.85899925231934 -105.0876693725586 -11.76566696166992 -99.21533203125 -0.25 -92.56700134277344 C 8.075333595275879 -87.76066589355469 16.94266700744629 -83.08733367919922 26.10533332824707 -78.67733001708984 C 35.12599945068359 -74.33567047119141 44.69133377075195 -70.12433624267578 54.53633499145508 -66.16066741943359 C 73.73033142089844 -58.43266677856445 94.83066558837891 -51.30733489990234 117.2506637573242 -44.98233413696289 C 138.8626708984375 -38.8849983215332 162.3800048828125 -33.34066772460938 187.1490020751953 -28.50266647338867 C 210.9129943847656 -23.86100006103516 236.5966644287109 -19.72033309936523 263.4869995117188 -16.19533348083496 C 289.1283264160156 -12.8343334197998 316.7283325195313 -9.920332908630371 345.5206604003906 -7.535333156585693 C 372.7496643066406 -5.279333114624023 402.0156555175781 -3.416333436965942 432.5056762695313 -1.998000025749207 C 487.489013671875 0.5603333115577698 548.2793579101563 1.803666710853577 618.350341796875 1.803666710853577 C 712.4976806640625 1.803666710853577 812.5946655273438 -0.4720000028610229 909.3963623046875 -2.67300009727478 C 1008.556030273438 -4.927666664123535 1111.09130859375 -7.258999824523926 1209.880981445313 -7.258999824523926 C 1293.20361328125 -7.258999824523926 1365.358032226563 -5.60200023651123 1430.466674804688 -2.193333387374878 C 1467.021606445313 -0.2796666622161865 1502.102294921875 2.24233341217041 1534.734008789063 5.302666664123535 C 1569.416625976563 8.555333137512207 1602.6513671875 12.53866672515869 1633.515014648438 17.14200019836426 C 1666.016357421875 21.98966598510742 1697.034057617188 27.69499969482422 1725.706665039063 34.09966659545898 C 1740.551635742188 37.41566848754883 1755.113037109375 40.99566650390625 1768.986694335938 44.7400016784668 C 1783.154663085938 48.56366729736328 1797.02294921875 52.67166519165039 1810.2060546875 56.95000076293945 C 1823.652709960938 61.31366729736328 1836.781005859375 65.98200225830078 1849.226684570313 70.82599639892578 C 1861.907348632813 75.76132965087891 1874.249633789063 81.02300262451172 1885.91064453125 86.46466827392578 C 1897.780639648438 92.00366973876953 1909.290649414063 97.89066314697266 1920.120971679688 103.9619979858398 C 1931.135375976563 110.1366653442383 1941.766967773438 116.6813354492188 1951.719970703125 123.4140014648438 C 1970.177001953125 135.8999938964844 1987.470947265625 148.3849945068359 2003.121337890625 160.5223388671875 C 2018.272338867188 172.2726593017578 2032.294677734375 184.0166625976563 2044.798950195313 195.4283294677734 C 2056.883544921875 206.4566650390625 2067.8779296875 217.4733276367188 2077.4765625 228.1723327636719 C 2086.735107421875 238.4920043945313 2094.944580078125 248.7949981689453 2101.8779296875 258.794677734375 C 2108.55078125 268.4186706542969 2114.220703125 278.0206604003906 2118.729736328125 287.3340148925781 C 2123.059326171875 296.2760009765625 2126.4345703125 305.1910095214844 2128.762451171875 313.8320007324219 C 2130.99169921875 322.1066589355469 2132.3193359375 330.3506774902344 2132.708984375 338.3346557617188 C 2133.081298828125 345.9603271484375 2132.607421875 353.5516662597656 2131.30078125 360.8980102539063 C 2130.235107421875 366.888671875 2128.58935546875 372.8646545410156 2126.408935546875 378.6600036621094 C 2124.32275390625 384.2046813964844 2121.691650390625 389.7316589355469 2118.589111328125 395.0873413085938 C 2112.81201171875 405.0580139160156 2105.190673828125 414.8030090332031 2095.93603515625 424.052001953125 C 2080.332763671875 439.6456604003906 2059.8603515625 454.1333312988281 2035.088012695313 467.1130065917969 C 2025.350708007813 472.2149963378906 2014.917724609375 477.0929870605469 2004.078979492188 481.6116638183594 C 1995.406372070313 485.2269897460938 1986.4560546875 488.6220092773438 1977.476684570313 491.70166015625 C 1962.787963867188 496.7395324707031 1952.792358398438 499.2852172851563 1951.938598632813 499.5 Z" stroke="none"/>
        <path d="M -108.53466796875 -130.8803405761719 C -114.1396484375 -130.8803405761719 -119.440673828125 -130.3223266601563 -124.290283203125 -129.2223205566406 C -129.02587890625 -128.1476745605469 -133.462890625 -126.5263366699219 -137.478759765625 -124.40234375 C -141.404296875 -122.3259887695313 -145.0380859375 -119.7109985351563 -148.278564453125 -116.6293334960938 C -151.4541015625 -113.6103210449219 -154.34130859375 -110.0586547851563 -156.861083984375 -106.072998046875 C -159.118896484375 -102.5016784667969 -161.141357421875 -98.48699951171875 -162.87255859375 -94.14031982421875 C -164.5712890625 -89.87533569335938 -166.035888671875 -85.17333984375 -167.2265625 -80.1646728515625 C -169.534912109375 -70.45233154296875 -170.90478515625 -59.197998046875 -171.297607421875 -46.71434020996094 C -171.673095703125 -34.78933715820313 -171.1669921875 -21.43099975585938 -169.79296875 -7.011337280273438 C -168.487060546875 6.699661254882813 -166.362548828125 21.72734069824219 -163.478759765625 37.65432739257813 C -153.4951171875 92.79533386230469 -134.097412109375 161.0403289794922 -105.82421875 240.49267578125 C -94.714111328125 271.7146606445313 -82.18994140625 304.7626647949219 -68.5999755859375 338.7183227539063 C -57.727294921875 365.885009765625 -46.1519775390625 393.6900024414063 -34.1953125 421.3609924316406 C -15.35546875 464.9631652832031 -1.4508056640625 494.5823059082031 0.6334228515625 499 L 1951.876342773438 499 C 1953.05029296875 498.703125 1962.935302734375 496.1613464355469 1977.333984375 491.2219848632813 C 1986.303955078125 488.1449890136719 1995.244384765625 484.7533264160156 2003.907348632813 481.1413269042969 C 2014.732055664063 476.6279907226563 2025.150634765625 471.7560119628906 2034.874389648438 466.6606750488281 C 2059.597900390625 453.7046813964844 2080.02587890625 439.2473449707031 2095.590576171875 423.6903381347656 C 2104.812744140625 414.47265625 2112.406005859375 404.7630004882813 2118.159423828125 394.8309936523438 C 2121.248046875 389.4996643066406 2123.8662109375 383.9983520507813 2125.9423828125 378.47998046875 C 2128.111328125 372.7139892578125 2129.748779296875 366.7686767578125 2130.80859375 360.8086547851563 C 2132.108642578125 353.4989929199219 2132.580078125 345.9453125 2132.209716796875 338.3573303222656 C 2131.82177734375 330.4089965820313 2130.499267578125 322.20068359375 2128.279296875 313.9603271484375 C 2125.959716796875 305.3496704101563 2122.594970703125 296.4643249511719 2118.279052734375 287.5503234863281 C 2113.781005859375 278.2606811523438 2108.124267578125 268.6809997558594 2101.466064453125 259.0780029296875 C 2094.544677734375 249.0956726074219 2086.347900390625 238.809326171875 2077.103271484375 228.5053405761719 C 2067.51611328125 217.8186645507813 2056.53369140625 206.8139953613281 2044.461303710938 195.7969970703125 C 2031.966674804688 184.3943328857422 2017.954711914063 172.6593322753906 2002.814331054688 160.9173278808594 C 1987.172607421875 148.7863311767578 1969.8876953125 136.3079986572266 1951.439697265625 123.8283386230469 C 1941.498291015625 117.1033325195313 1930.879028320313 110.5660018920898 1919.876342773438 104.3980026245117 C 1909.057006835938 98.33266448974609 1897.557983398438 92.45133209228516 1885.699340820313 86.91766357421875 C 1874.047973632813 81.48066711425781 1861.715698242188 76.22333526611328 1849.045288085938 71.29166412353516 C 1836.608642578125 66.45133209228516 1823.489379882813 61.78600311279297 1810.051635742188 57.42500305175781 C 1796.876708984375 53.14967346191406 1783.016357421875 49.04400634765625 1768.856323242188 45.22233581542969 C 1754.989990234375 41.47966003417969 1740.435302734375 37.90167236328125 1725.59765625 34.58700561523438 C 1696.936279296875 28.18499755859375 1665.9306640625 22.48167419433594 1633.441040039063 17.63566589355469 C 1602.586303710938 13.03366088867188 1569.360595703125 9.05133056640625 1534.687377929688 5.799331665039063 C 1502.06201171875 2.739669799804688 1466.98828125 0.2183380126953125 1430.440673828125 -1.69500732421875 C 1365.338989257813 -5.10333251953125 1293.193359375 -6.759674072265625 1209.880981445313 -6.759002685546875 C 1111.106323242188 -6.75799560546875 1008.583312988281 -4.427337646484375 909.4356689453125 -2.17333984375 C 812.6219482421875 0.0276641845703125 712.5123291015625 2.303665161132813 618.350341796875 2.303665161132813 C 548.2713623046875 2.303665161132813 487.473388671875 1.05999755859375 432.4822998046875 -1.498336791992188 C 401.986328125 -2.917327880859375 372.71435546875 -4.780670166015625 345.4793701171875 -7.037002563476563 C 316.678955078125 -9.423004150390625 289.071044921875 -12.33732604980469 263.421630859375 -15.69966125488281 C 236.5213623046875 -19.22599792480469 210.8270263671875 -23.36833190917969 187.052978515625 -28.01199340820313 C 162.2706298828125 -32.85234069824219 138.739990234375 -38.40032958984375 117.114990234375 -44.50100708007813 C 94.6776123046875 -50.83099365234375 73.560302734375 -57.96232604980469 54.349365234375 -65.69700622558594 C 44.49462890625 -69.6646728515625 34.9189453125 -73.88034057617188 25.888671875 -78.22665405273438 C 16.71435546875 -82.642333984375 7.8360595703125 -87.32131958007813 -0.5 -92.13400268554688 C -12.0042724609375 -98.77566528320313 -23.0860595703125 -104.6416625976563 -33.43701171875 -109.5693359375 C -43.5673828125 -114.3919982910156 -53.2779541015625 -118.4490051269531 -62.2996826171875 -121.6279907226563 C -71.116943359375 -124.7346801757813 -79.5185546875 -127.0883483886719 -87.271728515625 -128.6233215332031 C -94.835693359375 -130.1210021972656 -101.98974609375 -130.8803405761719 -108.53466796875 -130.8803405761719 M -108.534423828125 -131.8801879882813 C -82.2724609375 -131.8801879882813 -46.794921875 -120.015625 0 -93 C 134.677490234375 -15.248046875 362.0107421875 1.303787231445313 618.3504638671875 1.303787231445313 C 808.159912109375 1.303787231445313 1013.866638183594 -7.757476806640625 1209.881103515625 -7.759002685546875 C 1511.792724609375 -7.761367797851563 1790.4833984375 13.73876953125 1952 123 C 2360 399 1952 500 1952 500 L 0 500 C 0 500 -300.02392578125 -131.8801879882813 -108.534423828125 -131.8801879882813 Z" stroke="none" fill="#707070"/>
      </g>
    </g>
  </g>
</svg>
