<?xml version="1.0" encoding="utf-8"?>
<!-- Generator: Adobe Illustrator 25.0.1, SVG Export Plug-In . SVG Version: 6.00 Build 0)  -->
<svg version="1.1" id="Layer_1" xmlns="http://www.w3.org/2000/svg" xmlns:xlink="http://www.w3.org/1999/xlink" x="0px" y="0px"
	 viewBox="0 0 131.8 142" style="enable-background:new 0 0 131.8 142;" xml:space="preserve">
<style type="text/css">
	.st0{fill:#E4C3C3;}
</style>
<path class="st0" d="M131.4,62l0.4-0.3V4L130.2,5c-0.2,0.1-0.3,0.3-0.5,0.5c-8.4,9.6-23.4,11.1-37.9,12.6c-3.6,0.4-7,0.7-10.2,1.2
	C70.6,20.9,67,31.2,65.9,37c-1.1-5.8-4.7-16.1-15.7-17.6c-3.3-0.5-6.7-0.8-10.2-1.2c-14.5-1.5-29.4-3-37.8-12.6
	C1.9,5.4,1.8,5.2,1.6,5L0,4v57.7L0.4,62c0.3,0.2,27.3,18.5,62.3,19.7v53.5c-25.3-0.1-52.3-15.4-56.2-17.7V97.3
	c0-14.5-4.6-18.6-4.8-18.7L0,77.2v44.7l0.4,0.3c0.3,0.2,28.2,19.1,64,19.8v0l1.5,0l0.5,0l1,0v0c35.8-0.7,63.7-19.6,64-19.8l0.4-0.3
	V77.2l-1.6,1.4c-0.2,0.2-4.8,4.2-4.8,18.7v20.2c-3.9,2.3-31,17.6-56.3,17.7V81.7C104.1,80.5,131.1,62.2,131.4,62 M69.1,75
	c0-5.7,0.4-35,7.2-44.8c4.4-6.3,17.4-7.2,28.9-7.9c8.2-0.5,15.3-1,18.5-3.4c0.5-0.4,1.1-0.8,1.6-1.1l0,39.5
	C121.5,59.6,94.4,74.9,69.1,75 M6.2,17.4c0.6,0.6,1.2,1.1,1.9,1.5c3.7,2.5,10.9,2.9,19.2,3.5c11.2,0.7,23.8,1.5,28.2,7.8
	c6.8,9.8,7.2,39,7.2,44.8C37.4,74.9,10.3,59.6,6.4,57.3V37.1L6.2,17.4z"/>
<path class="st0" d="M65.9,18.6c5.1,0,9.3-4.2,9.3-9.3S71.1,0,65.9,0c-5.1,0-9.3,4.2-9.3,9.3C56.6,14.5,60.8,18.6,65.9,18.6
	 M61.5,9.3c0-2.4,2-4.4,4.4-4.4c2.4,0,4.4,2,4.4,4.4c0,2.4-2,4.4-4.4,4.4c0,0,0,0,0,0C63.5,13.7,61.5,11.7,61.5,9.3"/>
</svg>
