<svg xmlns="http://www.w3.org/2000/svg" width="131.811" height="142" viewBox="0 0 131.811 142"><path d="M298.158,219.178l.439-.3V161.2l-1.566,1.05a2.475,2.475,0,0,0-.48.471c-8.439,9.611-23.4,11.136-37.878,12.611-3.588.366-6.977.71-10.249,1.177-11.014,1.575-14.593,11.891-15.738,17.643-1.149-5.792-4.738-16.073-15.733-17.643-3.271-.466-6.661-.81-10.249-1.177-14.475-1.475-29.444-3-37.847-12.57a2.5,2.5,0,0,0-.511-.511l-1.561-1.05v57.679l.434.3c.267.186,27.263,18.489,62.254,19.711v53.539c-25.3-.095-52.344-15.389-56.249-17.679V254.536c0-14.539-4.6-18.575-4.792-18.742l-1.647-1.385v44.7l.434.3c.276.194,28.163,19.1,64,19.76v.032l1.466-.009.471.009,1-.018v-.014c35.837-.665,63.72-19.566,64-19.76l.439-.3v-44.7l-1.647,1.385c-.195.168-4.792,4.2-4.792,18.742v20.213c-3.91,2.29-30.951,17.584-56.25,17.679V238.889c34.987-1.222,61.983-19.525,62.25-19.711M235.9,232.192c0-5.742.371-34.951,7.181-44.788,4.38-6.33,17.43-7.181,28.941-7.937,8.2-.539,15.29-1,18.466-3.389a15.178,15.178,0,0,1,1.633-1.1l.032,39.53c-3.91,2.294-30.955,17.588-56.254,17.679m-62.9-57.6a14.827,14.827,0,0,0,1.932,1.516c3.738,2.475,10.905,2.937,19.2,3.475,11.158.715,23.806,1.529,28.159,7.819,6.806,9.837,7.172,39.045,7.177,44.788-25.3-.09-52.344-15.389-56.249-17.679V194.3Z" transform="translate(-166.786 -157.202)" fill="#563e5b"/><path d="M462.209,159.643a9.321,9.321,0,1,0-9.321-9.321,9.328,9.328,0,0,0,9.321,9.321m-4.376-9.321a4.376,4.376,0,1,1,4.376,4.371,4.385,4.385,0,0,1-4.376-4.371" transform="translate(-396.305 -141)" fill="#563e5b"/></svg>