<svg xmlns="http://www.w3.org/2000/svg" width="163.19" height="101.991" viewBox="0 0 163.19 101.991"><g transform="translate(0 -96.003)"><g transform="translate(23.791 103.224)"><path d="M179.7,181.369c-3.2-6.677-14.66-15.945-25.73-24.9-6.174-4.991-12.008-9.71-15.727-13.429a3.4,3.4,0,0,0-3.556-.8c-2.291.83-3.706,1.469-4.821,1.965a11.244,11.244,0,0,1-4.563,1.251,3.4,3.4,0,0,0-2.489,1.489c-4.807,7.187-9.785,6.575-13.11,5.46-1.061-.353-1.251-.809-1.353-1.244-.714-2.985,2.87-9.934,7.513-14.578,11.049-11.056,16.747-13.824,28.783-8.445,13.653,6.106,27.334,10.886,27.471,10.934a3.4,3.4,0,1,0,2.237-6.426c-.136-.048-13.545-4.733-26.926-10.723-15.591-6.97-24.145-2.38-36.364,9.846-4.651,4.651-10.968,14.061-9.336,20.963a8.41,8.41,0,0,0,5.841,6.126c7.7,2.543,14.735.109,19.97-6.84a17.163,17.163,0,0,0,5.106-1.618c.639-.286,1.387-.619,2.38-1.02,3.889,3.651,9.139,7.9,14.667,12.368,10,8.085,21.33,17.251,23.88,22.554a3.984,3.984,0,0,1-1.013,5.106c-1.346,1.156-3.189,1.523-4.188.823a3.4,3.4,0,0,0-5.31,3.162c.231,2.162-1.748,3.4-2.6,3.828-2.176,1.1-4.447.911-5.3.122a3.4,3.4,0,0,0-5.7,2.169,6.46,6.46,0,0,1-4.012,5.208,3.585,3.585,0,0,1-3.9-.605,3.439,3.439,0,0,0-3.107-.789,3.4,3.4,0,0,0-2.387,2.142c-.129.34-.422,1.156-3.6,1.156-2.264,0-6.337-1.53-8.329-2.849-2.387-1.571-17.353-12.736-30.279-23.561-1.815-1.53-4.957-4.807-7.731-7.7-2.462-2.57-4.712-4.9-5.868-5.882a3.4,3.4,0,0,0-4.392,5.195c1.054.891,3.094,3.046,5.344,5.392,3.033,3.169,6.167,6.446,8.275,8.214,12.661,10.6,27.878,22.044,30.911,24.036,2.5,1.646,7.894,3.957,12.069,3.957,3.352,0,5.929-.768,7.717-2.271a10.583,10.583,0,0,0,7.731-.082,13.393,13.393,0,0,0,7.078-6.534,13.148,13.148,0,0,0,8.533-1.231,11.536,11.536,0,0,0,5.678-5.929,11.119,11.119,0,0,0,7.8-2.795A10.809,10.809,0,0,0,179.7,181.369Z" transform="translate(-74.642 -118.658)" fill="#563e5b"/></g><g transform="translate(33.998 109.6)"><g transform="translate(0 0)"><path d="M140.664,138.663h-30.6a3.4,3.4,0,1,0,0,6.8h30.6a3.4,3.4,0,1,0,0-6.8Z" transform="translate(-106.666 -138.663)" fill="#563e5b"/></g></g><g transform="translate(122.651 157.192)"><path d="M400.973,289.486a3.391,3.391,0,0,0-4.719-.925l-9.941,6.677a3.4,3.4,0,0,0,3.795,5.644l9.941-6.677A3.4,3.4,0,0,0,400.973,289.486Z" transform="translate(-384.811 -287.977)" fill="#563e5b"/></g><g transform="translate(91.799 153.794)"><path d="M313.924,298.448c-2.434-1.918-13.32-13.062-20.052-20.079a3.4,3.4,0,1,0-4.909,4.705c1.748,1.822,17.162,17.89,20.746,20.718a3.386,3.386,0,0,0,2.1.728,3.435,3.435,0,0,0,2.679-1.3A3.4,3.4,0,0,0,313.924,298.448Z" transform="translate(-288.015 -277.317)" fill="#563e5b"/></g><g transform="translate(81.597 164)"><path d="M278.53,327.082c-4.073-3.257-14.306-14.13-16.618-16.645a3.4,3.4,0,1,0-5.011,4.6c.122.129,12.335,13.314,17.38,17.353a3.4,3.4,0,0,0,4.25-5.311Z" transform="translate(-256.005 -309.337)" fill="#563e5b"/></g><g transform="translate(67.999 170.791)"><path d="M235.935,348.445c-4.848-4.086-14.769-14.646-16.707-16.72a3.4,3.4,0,0,0-4.971,4.644c2.788,2.985,12.28,13.049,17.292,17.278a3.4,3.4,0,0,0,4.386-5.2Z" transform="translate(-213.343 -330.644)" fill="#563e5b"/></g><g transform="translate(0 96.003)"><path d="M39.737,103.733c-5.827-5.521-29.129-7.31-36.133-7.724A3.4,3.4,0,0,0,0,99.4v61.2A3.4,3.4,0,0,0,3.4,164H23.8a3.4,3.4,0,0,0,3.23-2.346c.5-1.523,12.212-37.479,13.755-55.158A3.382,3.382,0,0,0,39.737,103.733ZM21.317,157.2H6.8V103.046c10.927.863,22.718,2.74,27,4.821C32,122.758,23.846,149.215,21.317,157.2Z" transform="translate(0 -96.003)" fill="#563e5b"/></g><g transform="translate(115.714 102.801)"><g transform="translate(0 0)"><path d="M407.123,117.33c-26.7,0-41.5,6.834-42.124,7.119a3.383,3.383,0,0,0-1.816,2.115,3.429,3.429,0,0,0,.374,2.761c4.2,6.766,17.359,44.34,19.889,53.506a3.4,3.4,0,0,0,3.277,2.5h20.4a3.4,3.4,0,0,0,3.4-3.4v-61.2A3.4,3.4,0,0,0,407.123,117.33Zm-3.4,61.2H389.267c-3.223-10.5-12.743-37.874-18.053-49.188,5.188-1.761,16.333-4.787,32.509-5.168Z" transform="translate(-363.046 -117.33)" fill="#563e5b"/></g></g></g></svg>